<svg width="98" height="24" viewBox="0 0 98 24" fill="none" xmlns="http://www.w3.org/2000/svg">
<circle cx="12.5" cy="12" r="10" fill="#1877F2"/>
<path fill-rule="evenodd" clip-rule="evenodd" d="M16.3926 14.8906L16.8359 12H14.0625V10.1242C14.0625 9.33334 14.4499 8.5625 15.6921 8.5625H16.9531V6.10156C16.9531 6.10156 15.8087 5.90625 14.7146 5.90625C12.4304 5.90625 10.9375 7.29063 10.9375 9.79688V12H8.39844V14.8906H10.9375V21.8785C11.4466 21.9584 11.9684 22 12.5 22C13.0316 22 13.5534 21.9584 14.0625 21.8785V14.8906H16.3926Z" fill="white"/>
<path d="M35.7285 17H34.1084V7.00586H39.748V8.38672H35.7285V11.5107H39.4951V12.8984H35.7285V17ZM46.1191 17L45.7979 15.9473H45.7432C45.3786 16.4076 45.0117 16.722 44.6426 16.8906C44.2734 17.0547 43.7995 17.1367 43.2207 17.1367C42.4779 17.1367 41.8968 16.9362 41.4775 16.5352C41.0628 16.1341 40.8555 15.5667 40.8555 14.833C40.8555 14.0537 41.1449 13.4658 41.7236 13.0693C42.3024 12.6729 43.1842 12.4564 44.3691 12.4199L45.6748 12.3789V11.9756C45.6748 11.4925 45.5609 11.1325 45.333 10.8955C45.1097 10.654 44.7611 10.5332 44.2871 10.5332C43.8997 10.5332 43.5283 10.5902 43.1729 10.7041C42.8174 10.818 42.4756 10.9525 42.1475 11.1074L41.6279 9.95898C42.0381 9.74479 42.487 9.58301 42.9746 9.47363C43.4622 9.3597 43.9225 9.30273 44.3555 9.30273C45.3171 9.30273 46.0417 9.51237 46.5293 9.93164C47.0215 10.3509 47.2676 11.0094 47.2676 11.9072V17H46.1191ZM43.7266 15.9062C44.3099 15.9062 44.777 15.7445 45.1279 15.4209C45.4834 15.0928 45.6611 14.6348 45.6611 14.0469V13.3906L44.6904 13.4316C43.9339 13.459 43.3825 13.5866 43.0361 13.8145C42.6943 14.0378 42.5234 14.3818 42.5234 14.8467C42.5234 15.1839 42.6237 15.446 42.8242 15.6328C43.0247 15.8151 43.3255 15.9062 43.7266 15.9062ZM52.5586 17.1367C51.4147 17.1367 50.5443 16.804 49.9473 16.1387C49.3548 15.4688 49.0586 14.5094 49.0586 13.2607C49.0586 11.9893 49.3685 11.0117 49.9883 10.3281C50.6126 9.64453 51.5127 9.30273 52.6885 9.30273C53.486 9.30273 54.2038 9.45085 54.8418 9.74707L54.3564 11.0391C53.6774 10.7747 53.1169 10.6426 52.6748 10.6426C51.3669 10.6426 50.7129 11.5107 50.7129 13.2471C50.7129 14.0947 50.8747 14.7327 51.1982 15.1611C51.5264 15.585 52.0049 15.7969 52.6338 15.7969C53.3493 15.7969 54.026 15.6191 54.6641 15.2637V16.665C54.377 16.8337 54.0693 16.9544 53.7412 17.0273C53.4176 17.1003 53.0234 17.1367 52.5586 17.1367ZM59.7432 17.1367C58.5674 17.1367 57.6468 16.7949 56.9814 16.1113C56.3206 15.4232 55.9902 14.4775 55.9902 13.2744C55.9902 12.0394 56.2979 11.0687 56.9131 10.3623C57.5283 9.65592 58.3737 9.30273 59.4492 9.30273C60.4473 9.30273 61.2357 9.60579 61.8145 10.2119C62.3932 10.818 62.6826 11.652 62.6826 12.7139V13.582H57.6445C57.6673 14.3158 57.8656 14.8809 58.2393 15.2773C58.613 15.6693 59.1393 15.8652 59.8184 15.8652C60.265 15.8652 60.6797 15.8242 61.0625 15.7422C61.4499 15.6556 61.8646 15.5143 62.3066 15.3184V16.624C61.9147 16.8109 61.5182 16.943 61.1172 17.0205C60.7161 17.098 60.2581 17.1367 59.7432 17.1367ZM59.4492 10.5195C58.9388 10.5195 58.5286 10.6813 58.2188 11.0049C57.9134 11.3285 57.7311 11.8001 57.6719 12.4199H61.1035C61.0944 11.7956 60.944 11.3239 60.6523 11.0049C60.3607 10.6813 59.9596 10.5195 59.4492 10.5195ZM68.3701 9.30273C69.3135 9.30273 70.0472 9.64453 70.5713 10.3281C71.0999 11.0117 71.3643 11.971 71.3643 13.2061C71.3643 14.4456 71.0977 15.4118 70.5645 16.1045C70.0312 16.7926 69.2907 17.1367 68.3428 17.1367C67.3857 17.1367 66.6429 16.7926 66.1143 16.1045H66.0049L65.7109 17H64.5078V6.36328H66.1143V8.89258C66.1143 9.07943 66.1051 9.35742 66.0869 9.72656C66.0687 10.0957 66.055 10.3304 66.0459 10.4307H66.1143C66.6247 9.67871 67.3766 9.30273 68.3701 9.30273ZM67.9531 10.6152C67.306 10.6152 66.8389 10.8066 66.5518 11.1895C66.2692 11.5677 66.1234 12.2035 66.1143 13.0967V13.2061C66.1143 14.1266 66.2601 14.7943 66.5518 15.209C66.8434 15.6191 67.3197 15.8242 67.9805 15.8242C68.5501 15.8242 68.9808 15.5986 69.2725 15.1475C69.5687 14.6963 69.7168 14.0446 69.7168 13.1924C69.7168 11.4743 69.1289 10.6152 67.9531 10.6152ZM79.9365 13.2061C79.9365 14.4411 79.6198 15.4049 78.9863 16.0977C78.3529 16.7904 77.471 17.1367 76.3408 17.1367C75.6344 17.1367 75.0101 16.9772 74.4678 16.6582C73.9255 16.3392 73.5085 15.8812 73.2168 15.2842C72.9251 14.6872 72.7793 13.9945 72.7793 13.2061C72.7793 11.9801 73.0938 11.0231 73.7227 10.335C74.3516 9.64681 75.238 9.30273 76.3818 9.30273C77.4756 9.30273 78.3415 9.65592 78.9795 10.3623C79.6175 11.0641 79.9365 12.012 79.9365 13.2061ZM74.4336 13.2061C74.4336 14.9515 75.0785 15.8242 76.3682 15.8242C77.6442 15.8242 78.2822 14.9515 78.2822 13.2061C78.2822 11.4788 77.6396 10.6152 76.3545 10.6152C75.68 10.6152 75.1901 10.8385 74.8848 11.2852C74.584 11.7318 74.4336 12.3721 74.4336 13.2061ZM88.4951 13.2061C88.4951 14.4411 88.1784 15.4049 87.5449 16.0977C86.9115 16.7904 86.0296 17.1367 84.8994 17.1367C84.193 17.1367 83.5687 16.9772 83.0264 16.6582C82.484 16.3392 82.0671 15.8812 81.7754 15.2842C81.4837 14.6872 81.3379 13.9945 81.3379 13.2061C81.3379 11.9801 81.6523 11.0231 82.2812 10.335C82.9102 9.64681 83.7965 9.30273 84.9404 9.30273C86.0342 9.30273 86.9001 9.65592 87.5381 10.3623C88.1761 11.0641 88.4951 12.012 88.4951 13.2061ZM82.9922 13.2061C82.9922 14.9515 83.637 15.8242 84.9268 15.8242C86.2028 15.8242 86.8408 14.9515 86.8408 13.2061C86.8408 11.4788 86.1982 10.6152 84.9131 10.6152C84.2386 10.6152 83.7487 10.8385 83.4434 11.2852C83.1426 11.7318 82.9922 12.3721 82.9922 13.2061ZM91.8994 13.0078L92.8086 11.873L95.0918 9.43945H96.9443L93.9023 12.6865L97.1357 17H95.249L92.8223 13.6846L91.9404 14.4092V17H90.3477V6.36328H91.9404V11.5518L91.8584 13.0078H91.8994Z" fill="#414141"/>
</svg>
