<svg width="72" height="24" viewBox="0 0 72 24" fill="none" xmlns="http://www.w3.org/2000/svg">
<path fill-rule="evenodd" clip-rule="evenodd" d="M16.1014 2C16.1925 3.14445 15.8165 4.27799 15.0532 5.1599C14.3128 6.04638 13.1909 6.55699 12.0092 6.54528C11.9341 5.43378 12.321 4.3391 13.0848 3.50237C13.8583 2.6543 14.9354 2.11788 16.1014 2ZM19.9601 8.58033C18.5732 9.41143 17.7198 10.8771 17.6988 12.4639C17.7008 14.2591 18.8037 15.8792 20.5 16.5785C20.1738 17.6115 19.682 18.5878 19.043 19.4711C18.1848 20.7224 17.285 21.945 15.8568 21.9676C15.1775 21.9829 14.719 21.7925 14.2413 21.5941C13.7429 21.3871 13.2236 21.1715 12.411 21.1715C11.5492 21.1715 11.0066 21.3941 10.4834 21.6087C10.0312 21.7942 9.59337 21.9738 8.97638 21.9988C7.61628 22.0479 6.57679 20.6632 5.68738 19.4235C3.9097 16.892 2.52549 12.2892 4.38123 9.15732C5.25267 7.63089 6.88206 6.66229 8.67324 6.60588C9.44464 6.5904 10.1849 6.88022 10.8338 7.13431C11.3301 7.32862 11.7731 7.50205 12.1358 7.50205C12.4546 7.50205 12.8852 7.33547 13.387 7.14134C14.1775 6.83554 15.1447 6.46136 16.1303 6.5622C17.6619 6.60891 19.0812 7.35682 19.9601 8.58033Z" fill="black"/>
<path d="M40.1807 17L39.1826 14.2246H35.3613L34.3838 17H32.6611L36.4004 6.96484H38.1777L41.917 17H40.1807ZM38.752 12.8164L37.8154 10.0957C37.7471 9.91341 37.6514 9.6263 37.5283 9.23438C37.4098 8.84245 37.3278 8.55534 37.2822 8.37305C37.1592 8.93359 36.9792 9.54655 36.7422 10.2119L35.8398 12.8164H38.752ZM46.9004 17.1367C45.9434 17.1367 45.2005 16.7926 44.6719 16.1045H44.5762C44.64 16.7425 44.6719 17.1299 44.6719 17.2666V20.3633H43.0654V9.43945H44.3643C44.4007 9.58073 44.4759 9.91797 44.5898 10.4512H44.6719C45.1732 9.68555 45.9251 9.30273 46.9277 9.30273C47.8711 9.30273 48.6048 9.64453 49.1289 10.3281C49.6576 11.0117 49.9219 11.971 49.9219 13.2061C49.9219 14.4411 49.653 15.4049 49.1152 16.0977C48.582 16.7904 47.8438 17.1367 46.9004 17.1367ZM46.5107 10.6152C45.8727 10.6152 45.4056 10.8021 45.1094 11.1758C44.8177 11.5495 44.6719 12.1465 44.6719 12.9668V13.2061C44.6719 14.1266 44.8177 14.7943 45.1094 15.209C45.401 15.6191 45.8773 15.8242 46.5381 15.8242C47.0941 15.8242 47.5225 15.5964 47.8232 15.1406C48.124 14.6849 48.2744 14.0355 48.2744 13.1924C48.2744 12.3447 48.124 11.7044 47.8232 11.2715C47.527 10.834 47.0895 10.6152 46.5107 10.6152ZM55.623 17.1367C54.666 17.1367 53.9232 16.7926 53.3945 16.1045H53.2988C53.3626 16.7425 53.3945 17.1299 53.3945 17.2666V20.3633H51.7881V9.43945H53.0869C53.1234 9.58073 53.1986 9.91797 53.3125 10.4512H53.3945C53.8958 9.68555 54.6478 9.30273 55.6504 9.30273C56.5938 9.30273 57.3275 9.64453 57.8516 10.3281C58.3802 11.0117 58.6445 11.971 58.6445 13.2061C58.6445 14.4411 58.3757 15.4049 57.8379 16.0977C57.3047 16.7904 56.5664 17.1367 55.623 17.1367ZM55.2334 10.6152C54.5954 10.6152 54.1283 10.8021 53.832 11.1758C53.5404 11.5495 53.3945 12.1465 53.3945 12.9668V13.2061C53.3945 14.1266 53.5404 14.7943 53.832 15.209C54.1237 15.6191 54.5999 15.8242 55.2607 15.8242C55.8167 15.8242 56.2451 15.5964 56.5459 15.1406C56.8467 14.6849 56.9971 14.0355 56.9971 13.1924C56.9971 12.3447 56.8467 11.7044 56.5459 11.2715C56.2497 10.834 55.8122 10.6152 55.2334 10.6152ZM62.1172 17H60.5107V6.36328H62.1172V17ZM67.7227 17.1367C66.5469 17.1367 65.6263 16.7949 64.9609 16.1113C64.3001 15.4232 63.9697 14.4775 63.9697 13.2744C63.9697 12.0394 64.2773 11.0687 64.8926 10.3623C65.5078 9.65592 66.3532 9.30273 67.4287 9.30273C68.4268 9.30273 69.2152 9.60579 69.7939 10.2119C70.3727 10.818 70.6621 11.652 70.6621 12.7139V13.582H65.624C65.6468 14.3158 65.8451 14.8809 66.2188 15.2773C66.5924 15.6693 67.1188 15.8652 67.7979 15.8652C68.2445 15.8652 68.6592 15.8242 69.042 15.7422C69.4294 15.6556 69.8441 15.5143 70.2861 15.3184V16.624C69.8942 16.8109 69.4977 16.943 69.0967 17.0205C68.6956 17.098 68.2376 17.1367 67.7227 17.1367ZM67.4287 10.5195C66.9183 10.5195 66.5081 10.6813 66.1982 11.0049C65.8929 11.3285 65.7106 11.8001 65.6514 12.4199H69.083C69.0739 11.7956 68.9235 11.3239 68.6318 11.0049C68.3402 10.6813 67.9391 10.5195 67.4287 10.5195Z" fill="#414141"/>
</svg>
