<svg width="80" height="24" viewBox="0 0 80 24" fill="none" xmlns="http://www.w3.org/2000/svg">
<path fill-rule="evenodd" clip-rule="evenodd" d="M12 6.48C13.69 6.48 14.83 7.21 15.48 7.82L18.02 5.34C16.46 3.89 14.43 3 12 3C8.47999 3 5.43999 5.02 3.95999 7.96L6.86999 10.22C7.59999 8.05 9.61999 6.48 12 6.48Z" fill="#EA4335"/>
<path fill-rule="evenodd" clip-rule="evenodd" d="M20.64 12.2C20.64 11.46 20.58 10.92 20.45 10.36H12V13.7H16.96C16.86 14.53 16.32 15.78 15.12 16.62L17.96 18.82C19.66 17.25 20.64 14.94 20.64 12.2Z" fill="#4285F4"/>
<path fill-rule="evenodd" clip-rule="evenodd" d="M6.88 13.78C6.69 13.22 6.58 12.62 6.58 12C6.58 11.38 6.69 10.78 6.87 10.22L3.96 7.96001C3.35 9.18001 3 10.55 3 12C3 13.45 3.35 14.82 3.96 16.04L6.88 13.78Z" fill="#FBBC05"/>
<path fill-rule="evenodd" clip-rule="evenodd" d="M12 21C14.43 21 16.47 20.2 17.96 18.82L15.12 16.62C14.36 17.15 13.34 17.52 12 17.52C9.62 17.52 7.6 15.95 6.88 13.78L3.97 16.04C5.45 18.98 8.48 21 12 21Z" fill="#34A853"/>
<path d="M37.8779 11.5791H41.5557V16.5967C40.9541 16.7926 40.3753 16.9316 39.8193 17.0137C39.2679 17.0957 38.6709 17.1367 38.0283 17.1367C36.5153 17.1367 35.3486 16.6901 34.5283 15.7969C33.708 14.8991 33.2979 13.6344 33.2979 12.0029C33.2979 10.3942 33.7604 9.13639 34.6855 8.22949C35.6107 7.31803 36.8844 6.8623 38.5068 6.8623C39.5505 6.8623 40.5394 7.06283 41.4736 7.46387L40.8994 8.82422C40.0882 8.45052 39.277 8.26367 38.4658 8.26367C37.3994 8.26367 36.5563 8.59863 35.9365 9.26855C35.3167 9.93848 35.0068 10.8545 35.0068 12.0166C35.0068 13.238 35.2848 14.1676 35.8408 14.8057C36.4014 15.4391 37.2057 15.7559 38.2539 15.7559C38.7826 15.7559 39.3477 15.6898 39.9492 15.5576V12.9805H37.8779V11.5791ZM50.4971 13.2061C50.4971 14.4411 50.1803 15.4049 49.5469 16.0977C48.9134 16.7904 48.0316 17.1367 46.9014 17.1367C46.195 17.1367 45.5706 16.9772 45.0283 16.6582C44.486 16.3392 44.069 15.8812 43.7773 15.2842C43.4857 14.6872 43.3398 13.9945 43.3398 13.2061C43.3398 11.9801 43.6543 11.0231 44.2832 10.335C44.9121 9.64681 45.7985 9.30273 46.9424 9.30273C48.0361 9.30273 48.902 9.65592 49.54 10.3623C50.1781 11.0641 50.4971 12.012 50.4971 13.2061ZM44.9941 13.2061C44.9941 14.9515 45.639 15.8242 46.9287 15.8242C48.2048 15.8242 48.8428 14.9515 48.8428 13.2061C48.8428 11.4788 48.2002 10.6152 46.915 10.6152C46.2406 10.6152 45.7507 10.8385 45.4453 11.2852C45.1445 11.7318 44.9941 12.3721 44.9941 13.2061ZM59.0557 13.2061C59.0557 14.4411 58.7389 15.4049 58.1055 16.0977C57.472 16.7904 56.5902 17.1367 55.46 17.1367C54.7536 17.1367 54.1292 16.9772 53.5869 16.6582C53.0446 16.3392 52.6276 15.8812 52.3359 15.2842C52.0443 14.6872 51.8984 13.9945 51.8984 13.2061C51.8984 11.9801 52.2129 11.0231 52.8418 10.335C53.4707 9.64681 54.3571 9.30273 55.501 9.30273C56.5947 9.30273 57.4606 9.65592 58.0986 10.3623C58.7367 11.0641 59.0557 12.012 59.0557 13.2061ZM53.5527 13.2061C53.5527 14.9515 54.1976 15.8242 55.4873 15.8242C56.7633 15.8242 57.4014 14.9515 57.4014 13.2061C57.4014 11.4788 56.7588 10.6152 55.4736 10.6152C54.7992 10.6152 54.3092 10.8385 54.0039 11.2852C53.7031 11.7318 53.5527 12.3721 53.5527 13.2061ZM67.293 9.43945V10.3213L66.001 10.5605C66.1195 10.7201 66.2174 10.916 66.2949 11.1484C66.3724 11.3809 66.4111 11.627 66.4111 11.8867C66.4111 12.666 66.1423 13.279 65.6045 13.7256C65.0667 14.1722 64.3262 14.3955 63.3828 14.3955C63.1413 14.3955 62.9225 14.3773 62.7266 14.3408C62.3802 14.555 62.207 14.8057 62.207 15.0928C62.207 15.266 62.2868 15.3958 62.4463 15.4824C62.6104 15.569 62.9089 15.6123 63.3418 15.6123H64.6611C65.4951 15.6123 66.1286 15.79 66.5615 16.1455C66.9945 16.501 67.2109 17.0137 67.2109 17.6836C67.2109 18.5404 66.8577 19.2012 66.1514 19.666C65.445 20.1309 64.4242 20.3633 63.0889 20.3633C62.0589 20.3633 61.2728 20.181 60.7305 19.8164C60.1882 19.4518 59.917 18.9323 59.917 18.2578C59.917 17.793 60.0628 17.401 60.3545 17.082C60.6507 16.7676 61.0632 16.5488 61.5918 16.4258C61.3776 16.3346 61.1999 16.1888 61.0586 15.9883C60.9219 15.7832 60.8535 15.569 60.8535 15.3457C60.8535 15.0632 60.9333 14.8239 61.0928 14.6279C61.2523 14.432 61.4893 14.2383 61.8037 14.0469C61.4118 13.8783 61.0928 13.6048 60.8467 13.2266C60.6051 12.8438 60.4844 12.3971 60.4844 11.8867C60.4844 11.0664 60.7419 10.4307 61.2568 9.97949C61.7764 9.52832 62.5146 9.30273 63.4717 9.30273C63.6859 9.30273 63.9092 9.31868 64.1416 9.35059C64.3786 9.37793 64.5563 9.40755 64.6748 9.43945H67.293ZM61.3525 18.1758C61.3525 18.5221 61.5075 18.7887 61.8174 18.9756C62.1318 19.1624 62.5716 19.2559 63.1367 19.2559C64.0117 19.2559 64.6634 19.1305 65.0918 18.8799C65.5202 18.6292 65.7344 18.2965 65.7344 17.8818C65.7344 17.5537 65.6159 17.319 65.3789 17.1777C65.1465 17.041 64.7113 16.9727 64.0732 16.9727H62.8564C62.3962 16.9727 62.0293 17.0798 61.7559 17.2939C61.487 17.5127 61.3525 17.8066 61.3525 18.1758ZM62.043 11.8867C62.043 12.3607 62.1637 12.7253 62.4053 12.9805C62.6514 13.2357 63.0023 13.3633 63.458 13.3633C64.3877 13.3633 64.8525 12.8665 64.8525 11.873C64.8525 11.3809 64.7363 11.0026 64.5039 10.7383C64.276 10.4694 63.9274 10.335 63.458 10.335C62.9932 10.335 62.64 10.4671 62.3984 10.7314C62.1615 10.9958 62.043 11.3809 62.043 11.8867ZM70.3076 17H68.7012V6.36328H70.3076V17ZM75.9131 17.1367C74.7373 17.1367 73.8167 16.7949 73.1514 16.1113C72.4906 15.4232 72.1602 14.4775 72.1602 13.2744C72.1602 12.0394 72.4678 11.0687 73.083 10.3623C73.6982 9.65592 74.5436 9.30273 75.6191 9.30273C76.6172 9.30273 77.4056 9.60579 77.9844 10.2119C78.5632 10.818 78.8525 11.652 78.8525 12.7139V13.582H73.8145C73.8372 14.3158 74.0355 14.8809 74.4092 15.2773C74.7829 15.6693 75.3092 15.8652 75.9883 15.8652C76.4349 15.8652 76.8496 15.8242 77.2324 15.7422C77.6198 15.6556 78.0345 15.5143 78.4766 15.3184V16.624C78.0846 16.8109 77.6882 16.943 77.2871 17.0205C76.8861 17.098 76.4281 17.1367 75.9131 17.1367ZM75.6191 10.5195C75.1087 10.5195 74.6986 10.6813 74.3887 11.0049C74.0833 11.3285 73.901 11.8001 73.8418 12.4199H77.2734C77.2643 11.7956 77.1139 11.3239 76.8223 11.0049C76.5306 10.6813 76.1296 10.5195 75.6191 10.5195Z" fill="#414141"/>
</svg>
